<svg width="679" height="851" viewBox="0 0 679 851" fill="none" xmlns="http://www.w3.org/2000/svg">
<ellipse cx="339.5" cy="104" rx="339.5" ry="104" fill="#FFB5A9"/>
<path d="M339 687L339 851L190.301 707.301L339 687Z" fill="#A4151B"/>
<path d="M339.014 687.313L339 851L488 707L339.014 687.313Z" fill="#9B1218"/>
<path d="M339 569.544V720.544C175 725.044 10 673.044 0 615.544V466.544C16.5 547.044 228 569.044 339 569.544Z" fill="#A4151B"/>
<path d="M339 569.544V720.544C503 725.044 668.5 673.044 678.5 615.544L679 466.544C662.5 547.044 450 569.044 339 569.544Z" fill="#A4151B"/>
<path d="M339 388.272V539.272C175 543.772 10 491.772 0 434.272V285.272C16.5 365.772 228 387.772 339 388.272Z" fill="#DF3535"/>
<path d="M339 388.272V539.272C503 543.772 668.5 491.772 678.5 434.272L679 285.272C662.5 365.772 450 387.772 339 388.272Z" fill="#DF3535"/>
<path d="M339 207V358C175 362.5 10 310.5 0 253V104C16.5 184.5 228 206.5 339 207Z" fill="#F45247"/>
<path d="M339 207V358C503 362.5 668.5 310.5 678.5 253L679 104C662.5 184.5 450 206.5 339 207Z" fill="#F45247"/>
</svg>
